<?xml version="1.0" standalone="no"?>
<!DOCTYPE svg PUBLIC "-//W3C//DTD SVG 20010904//EN"
 "http://www.w3.org/TR/2001/REC-SVG-20010904/DTD/svg10.dtd">
<svg version="1.0" xmlns="http://www.w3.org/2000/svg"
 width="2000.000000pt" height="545.000000pt" viewBox="0 0 2000.000000 545.000000"
 preserveAspectRatio="xMidYMid meet">

<g transform="translate(0.000000,545.000000) scale(0.100000,-0.100000)"
fill="#000000" stroke="none">
<path d="M0 2725 l0 -2725 10000 0 10000 0 0 2725 0 2725 -10000 0 -10000 0 0
-2725z m9920 2010 c20 -24 -14 -730 -36 -767 -3 -5 -16 -8 -29 -8 -18 0 -26 7
-31 27 -12 44 3 718 15 742 14 25 62 29 81 6z m-546 -347 c38 -60 134 -393
122 -425 -11 -29 -49 -9 -73 37 -46 90 -122 362 -110 394 9 23 44 19 61 -6z
m-691 -40 c13 -13 72 -77 132 -143 59 -66 139 -152 177 -190 110 -113 140
-166 106 -188 -13 -9 -28 -3 -73 27 -76 50 -124 95 -273 255 -148 159 -164
184 -151 220 18 46 46 53 82 19z m2325 -54 c39 -27 27 -55 -76 -185 -94 -118
-271 -305 -319 -336 -24 -16 -58 -10 -67 12 -7 18 22 60 189 271 216 275 218
276 273 238z m-626 -54 c11 -18 -63 -236 -94 -275 -17 -21 -23 -24 -35 -13
-20 16 -13 87 17 189 36 122 36 121 71 117 18 -2 36 -10 41 -18z m-1693 -462
c69 -36 83 -52 70 -85 -11 -29 -45 -30 -104 -3 -79 36 -124 88 -98 113 15 16
75 5 132 -25z m2463 -122 c14 -21 -13 -43 -109 -88 -122 -58 -151 -66 -159
-43 -10 25 22 51 132 105 92 45 120 50 136 26z m-1385 -365 c87 -44 126 -124
126 -256 0 -103 -21 -167 -76 -223 -81 -83 -261 -81 -348 4 -49 48 -73 117
-73 214 -2 156 58 249 179 281 47 13 150 2 192 -20z m2557 9 c25 -9 28 -14 22
-42 -8 -41 -8 -41 -53 -29 -99 28 -183 1 -183 -58 0 -37 34 -66 104 -91 117
-40 156 -83 156 -173 0 -53 -30 -102 -80 -131 -45 -27 -174 -27 -233 -2 -35
15 -38 20 -32 44 10 40 16 43 60 27 22 -8 65 -14 96 -15 46 0 61 4 83 25 55
51 22 120 -72 145 -116 32 -162 78 -162 163 0 79 33 122 111 146 39 12 142 7
183 -9z m1644 -1 c30 -10 33 -14 26 -43 -9 -41 -8 -41 -53 -28 -55 17 -118 15
-152 -5 -24 -14 -29 -24 -29 -55 0 -32 5 -41 33 -58 17 -11 57 -28 87 -37 212
-62 172 -323 -50 -323 -36 0 -94 13 -142 31 -24 10 -26 13 -16 42 6 18 12 33
13 35 1 1 21 -5 45 -13 50 -18 129 -20 164 -4 35 16 52 61 36 98 -12 29 -34
42 -141 81 -66 24 -98 54 -109 107 -19 80 28 159 107 182 44 12 133 7 181 -10z
m-7672 -8 c72 -33 102 -101 81 -186 -9 -39 -21 -56 -53 -80 l-40 -31 58 -109
c31 -61 58 -113 58 -117 0 -5 -19 -8 -42 -8 l-43 0 -56 108 -55 107 -52 3 -52
3 0 -110 0 -111 -40 0 -40 0 0 275 0 275 118 0 c93 0 126 -4 158 -19z m521
-129 c28 -81 72 -204 97 -274 l46 -128 -39 0 c-41 0 -39 -4 -82 123 l-13 37
-107 0 -108 0 -28 -80 -28 -80 -38 0 c-26 0 -37 4 -35 13 2 7 43 131 93 275
l90 262 50 0 50 0 52 -148z m468 -67 c39 -118 72 -215 75 -215 3 0 30 73 59
163 30 89 62 186 73 215 l19 52 50 0 c40 0 49 -3 49 -17 1 -10 16 -133 33
-273 l33 -255 -34 -3 c-19 -2 -36 -2 -38 0 -3 4 -53 390 -55 427 0 9 -23 -49
-50 -129 -27 -80 -60 -178 -75 -217 l-26 -73 -38 0 -37 0 -68 198 c-36 108
-70 205 -74 215 -4 11 -17 -65 -30 -175 -32 -268 -26 -248 -70 -248 l-37 0 22
168 c12 92 28 215 35 275 l13 107 50 0 51 0 70 -215z m773 188 c5 -16 48 -136
96 -269 47 -132 86 -244 86 -247 0 -4 -17 -7 -38 -7 l-38 0 -25 78 -25 77
-110 3 -110 3 -25 -78 -25 -78 -42 -3 -41 -3 75 218 c41 120 84 244 96 276
l21 57 47 0 c43 0 49 -3 58 -27z m382 -213 l0 -240 125 0 125 0 0 -35 0 -35
-165 0 -165 0 0 275 0 275 40 0 40 0 0 -240z m450 125 l0 -116 138 3 137 3 3
113 3 112 34 0 35 0 1 -247 c0 -137 2 -260 3 -275 2 -26 -1 -28 -39 -28 l-40
0 0 122 0 123 -137 3 -138 3 0 -126 0 -125 -40 0 -40 0 0 275 0 275 40 0 40 0
0 -115z m1383 98 c3 -10 29 -114 58 -230 29 -117 56 -207 60 -200 3 6 30 110
60 230 l54 217 51 0 52 0 57 -232 c38 -151 61 -225 65 -212 4 10 31 115 61
232 l53 212 39 0 c32 0 39 -3 35 -17 -2 -10 -33 -134 -69 -276 l-64 -258 -60
3 -59 3 -44 185 c-74 313 -59 308 -121 41 l-55 -231 -57 0 c-69 0 -55 -30
-134 290 -31 124 -58 233 -61 243 -4 14 1 17 35 17 29 0 41 -5 44 -17z m1107
-18 l0 -35 -125 0 -125 0 0 -80 0 -80 116 0 115 0 -3 -32 -3 -33 -112 -3 -113
-3 0 -89 0 -90 130 0 130 0 0 -35 0 -35 -170 0 -170 0 0 275 0 275 165 0 165
0 0 -35z m411 24 c57 -18 91 -58 97 -117 5 -52 -16 -108 -44 -119 -21 -8 -17
-18 12 -33 55 -30 73 -134 34 -198 -35 -56 -84 -72 -237 -72 l-131 0 -1 275
-1 275 117 0 c63 0 133 -5 154 -11z m799 -264 l0 -275 -40 0 -40 0 0 275 0
275 40 0 40 0 0 -275z m526 243 l-1 -33 -80 -5 -80 -5 0 -238 0 -237 -37 0
-38 0 0 240 0 240 -84 0 -84 0 -4 35 -4 35 207 0 206 0 -1 -32z m444 -3 l0
-35 -125 0 -125 0 0 -80 0 -80 115 0 115 0 0 -35 0 -35 -115 0 -115 0 0 -90 0
-90 130 0 130 0 0 -35 0 -35 -170 0 -170 0 0 275 0 275 165 0 165 0 0 -35z
m-3595 -896 c35 -19 40 -20 50 -5 11 15 55 23 55 10 0 -11 -23 -49 -34 -56
-18 -13 -61 -9 -82 7 -25 19 -53 19 -60 0 -9 -21 -44 -19 -44 3 0 22 10 36 35
50 28 16 35 15 80 -9z m-2002 -110 c38 -10 42 -15 31 -43 -5 -14 -17 -15 -69
-10 -68 7 -100 -3 -110 -36 -11 -35 18 -64 88 -89 82 -29 99 -47 105 -115 4
-48 1 -56 -24 -85 -37 -41 -97 -56 -168 -41 -71 15 -79 21 -67 53 10 26 11 26
52 12 50 -18 83 -19 112 -4 28 15 37 28 37 56 0 31 -21 48 -100 78 -77 30
-100 57 -100 117 1 92 96 140 213 107z m414 -8 c26 -12 52 -35 70 -62 26 -39
28 -50 28 -133 0 -105 -20 -156 -74 -193 -61 -41 -160 -41 -223 0 -69 46 -103
188 -69 289 13 40 79 104 115 111 52 10 114 5 153 -12z m273 -158 c0 -94 3
-178 6 -187 5 -13 24 -16 100 -16 94 0 94 0 94 -25 l0 -25 -130 0 -130 0 0
208 c0 115 3 211 6 214 3 3 16 5 30 4 l24 -1 0 -172z m340 25 c0 -84 3 -162 6
-174 18 -69 183 -70 199 -1 3 12 6 90 8 172 l2 150 28 3 27 3 0 -176 0 -177
-33 -33 c-80 -80 -244 -63 -283 30 -10 25 -14 77 -14 189 0 169 -5 154 53 165
4 0 7 -68 7 -151z m673 131 c28 -13 33 -25 18 -48 -7 -11 -15 -11 -41 -2 -86
29 -174 -1 -197 -69 -46 -133 29 -253 146 -235 91 13 96 12 96 -15 0 -22 -6
-26 -60 -38 -32 -7 -61 -15 -64 -18 -3 -2 5 -11 17 -20 29 -20 30 -69 1 -84
-11 -6 -33 -8 -50 -5 -35 8 -39 35 -5 35 33 0 41 16 18 36 -11 9 -17 24 -15
34 3 12 -3 19 -24 23 -82 18 -125 80 -131 193 -9 152 71 239 208 230 30 -2 67
-10 83 -17z m382 2 c75 -34 107 -95 106 -204 0 -150 -93 -235 -231 -212 -92
15 -141 78 -148 189 -7 121 24 192 102 227 52 24 120 24 171 0z m475 -13 l0
-28 -95 0 -95 0 0 -60 0 -60 85 0 85 0 0 -30 0 -30 -85 0 -85 0 0 -70 0 -70
100 0 100 0 0 -25 0 -25 -130 0 -130 0 0 213 0 212 125 0 125 0 0 -27z m303
21 c36 -10 38 -13 32 -37 -9 -35 -8 -34 -39 -22 -40 15 -98 12 -124 -6 -49
-34 -12 -88 82 -117 72 -23 96 -53 96 -121 0 -61 -29 -99 -87 -115 -47 -13
-51 -13 -110 -1 -68 15 -76 21 -64 52 10 25 11 26 48 12 95 -34 171 4 149 74
-4 10 -25 27 -49 37 -23 9 -59 24 -80 33 -90 37 -91 163 -2 203 46 21 93 24
148 8z m567 -21 l0 -28 -95 0 -95 0 0 -60 0 -60 85 0 85 0 0 -30 0 -30 -85 0
-85 0 0 -70 0 -70 100 0 100 0 0 -25 0 -25 -130 0 -130 0 0 213 0 212 125 0
125 0 0 -27z m228 -8 c8 -19 34 -93 57 -163 24 -71 45 -130 47 -132 2 -2 28
69 57 158 30 89 58 165 63 168 20 13 68 -3 73 -25 7 -32 45 -350 45 -374 0
-32 -48 -31 -54 1 -7 29 -36 272 -36 293 0 32 -11 7 -63 -147 -52 -154 -52
-154 -85 -157 -17 -2 -32 -1 -32 1 0 2 -24 75 -54 161 -48 139 -55 154 -60
125 -8 -47 -36 -270 -36 -286 0 -8 -12 -13 -30 -13 -16 0 -30 1 -30 3 0 1 11
90 25 197 14 107 25 200 25 207 0 6 8 13 18 16 39 9 55 2 70 -33z m-5869 -822
c70 -35 93 -87 89 -200 -3 -79 -6 -89 -34 -125 -46 -57 -74 -67 -196 -71
l-108 -4 0 209 c0 116 2 212 5 215 3 3 49 4 102 2 76 -3 106 -8 142 -26z m461
0 l0 -28 -95 0 -95 0 0 -60 0 -60 85 0 85 0 0 -30 0 -30 -85 0 -85 0 0 -70 0
-70 100 0 100 0 0 -25 0 -25 -130 0 -130 0 0 213 0 212 125 0 125 0 0 -27z
m303 21 c36 -10 38 -13 32 -37 -9 -35 -8 -34 -39 -22 -45 17 -104 12 -126 -10
-39 -39 -14 -78 69 -106 80 -28 111 -61 111 -119 0 -101 -76 -150 -194 -125
-71 15 -79 21 -67 53 l10 26 49 -16 c90 -29 155 4 139 69 -7 27 -24 37 -110
69 -42 15 -61 28 -72 49 -59 115 52 210 198 169z m415 -23 l3 -26 -100 0 -101
0 0 -60 0 -60 91 0 90 0 -3 -27 c-3 -28 -3 -28 -90 -31 l-88 -3 0 -69 0 -70
100 0 100 0 0 -25 0 -25 -130 0 -130 0 0 209 0 210 33 3 c17 2 75 2 127 2 95
-2 95 -2 98 -28z m157 26 c6 -4 59 -76 118 -161 l107 -154 0 157 0 156 30 0
30 0 0 -210 0 -210 -27 0 c-17 1 -34 9 -44 23 -9 12 -56 81 -104 152 -98 145
-108 157 -105 135 1 -8 2 -81 1 -162 l-1 -148 -25 0 -25 0 0 209 c0 204 2 216
30 220 3 0 10 -3 15 -7z m489 -140 c26 -76 53 -152 60 -171 l13 -34 51 147
c29 81 55 158 58 172 3 13 9 24 13 25 3 0 13 2 22 4 33 6 38 -9 20 -60 -10
-28 -42 -121 -71 -207 l-54 -158 -40 0 -41 0 -71 210 c-40 120 -66 211 -60
213 6 2 20 2 32 -1 17 -3 29 -28 68 -140z m632 113 c52 -40 74 -94 74 -185 0
-155 -88 -237 -231 -214 -97 16 -148 90 -148 214 -1 153 68 224 207 216 49 -3
70 -10 98 -31z m254 -161 l0 -184 95 0 c95 0 95 0 95 -25 l0 -25 -125 0 -125
0 0 209 c0 210 0 210 23 213 12 2 25 2 30 0 4 -2 7 -86 7 -188z m299 180 c2
-2 30 -79 61 -171 50 -146 59 -165 67 -143 5 14 31 88 58 165 26 77 52 144 56
149 10 11 59 15 59 4 0 -4 -31 -98 -70 -209 -38 -112 -70 -205 -70 -207 0 -2
-19 -2 -41 0 l-42 3 -68 200 c-38 110 -67 206 -64 213 4 12 39 9 54 -4z m459
-201 l2 -213 -30 0 -30 0 0 213 0 213 28 -1 27 0 3 -212z m238 204 c3 -3 29
-75 59 -162 29 -86 55 -158 57 -160 2 -2 29 71 59 163 54 160 57 167 83 167
14 1 31 -2 38 -6 10 -6 57 -326 58 -391 0 -23 -4 -28 -25 -28 -28 0 -26 -8
-53 200 l-18 135 -54 -160 -55 -160 -32 -3 c-18 -2 -33 -2 -33 0 0 2 -24 75
-54 162 -48 141 -55 155 -60 125 -8 -46 -36 -270 -36 -286 0 -8 -12 -13 -30
-13 -16 0 -30 2 -30 5 0 15 51 402 55 411 3 11 60 12 71 1z m724 -19 l0 -28
-95 0 -95 0 0 -60 0 -60 85 0 85 0 0 -30 0 -30 -85 0 -85 0 0 -70 0 -70 100 0
100 0 0 -25 0 -25 -130 0 -130 0 0 213 0 213 125 0 125 0 0 -28z m275 -131
l110 -157 5 158 c5 164 4 159 48 154 9 -2 12 -51 12 -212 l0 -210 -28 0 c-26
0 -41 17 -140 161 l-112 162 0 -162 0 -161 -30 0 -30 0 0 208 c0 115 2 211 5
214 3 2 15 4 27 3 18 -1 49 -39 133 -158z m575 131 c0 -28 -1 -28 -60 -28
l-60 0 0 -185 0 -185 -30 0 -30 0 0 185 0 185 -65 0 c-62 0 -65 1 -65 25 0 22
4 24 58 27 31 2 101 3 155 3 l97 1 0 -28z m347 13 c63 -29 95 -84 101 -175 8
-129 -32 -205 -123 -231 -151 -44 -259 43 -258 210 1 80 18 127 61 167 53 50
146 62 219 29z m619 -7 c97 -46 130 -192 72 -313 -17 -35 -31 -48 -74 -68 -46
-21 -65 -23 -146 -21 l-93 3 -3 207 -2 207 22 3 c56 8 192 -3 224 -18z m455
17 c12 -1 15 -8 11 -26 -4 -25 -6 -25 -98 -25 l-94 0 0 -60 0 -60 85 0 85 0 0
-30 0 -30 -85 0 -85 0 0 -70 0 -70 100 0 100 0 0 -25 0 -25 -130 0 -130 0 0
213 0 213 113 -2 c61 -2 119 -3 128 -3z m472 -2 c36 -10 38 -13 32 -37 -9 -35
-8 -34 -39 -22 -45 17 -104 12 -126 -10 -40 -40 -13 -83 65 -105 30 -9 68 -29
85 -45 26 -24 30 -35 30 -80 0 -45 -4 -56 -32 -84 -40 -40 -90 -51 -161 -36
-72 15 -80 21 -68 52 10 25 11 26 48 12 84 -29 152 -6 153 52 0 29 -25 49
-105 81 -75 30 -95 53 -95 111 0 96 93 145 213 111z m217 -206 l0 -213 -30 0
-30 0 0 208 c0 115 2 211 4 213 2 2 16 4 30 4 l26 0 0 -212z m398 208 c6 0 12
-12 12 -26 0 -24 -2 -25 -65 -25 l-65 0 0 -185 0 -185 -30 0 -30 0 0 185 0
185 -65 0 c-61 0 -65 1 -65 23 0 13 2 26 4 28 4 3 271 4 304 0z m352 -23 l0
-28 -95 0 -95 0 0 -60 0 -60 85 0 85 0 0 -30 0 -30 -85 0 -85 0 0 -70 0 -70
100 0 100 0 0 -25 0 -25 -130 0 -130 0 0 213 0 212 125 0 125 0 0 -27z m294
21 c41 -10 43 -12 36 -37 -4 -16 -13 -25 -21 -23 -50 13 -111 12 -134 -3 -53
-35 -20 -91 69 -116 79 -22 115 -74 103 -147 -13 -75 -92 -114 -191 -93 -68
14 -80 22 -71 50 6 18 12 21 33 16 93 -21 120 -19 146 7 14 14 26 35 26 46 0
23 -42 59 -79 68 -43 10 -100 42 -111 62 -17 32 -12 106 9 132 35 43 107 58
185 38z"/>
<path d="M9560 3222 c-56 -30 -81 -86 -82 -180 -1 -144 55 -215 167 -215 112
0 164 67 165 209 0 97 -25 156 -80 185 -45 25 -125 25 -170 1z"/>
<path d="M6100 3145 l0 -95 48 0 c65 0 119 17 137 43 15 22 20 73 9 102 -11
28 -60 45 -129 45 l-65 0 0 -95z"/>
<path d="M6676 3113 c-20 -59 -36 -111 -36 -116 0 -4 36 -7 79 -7 l80 0 -36
108 c-20 59 -39 111 -43 115 -4 5 -24 -40 -44 -100z"/>
<path d="M7987 3190 c-8 -19 -26 -72 -40 -117 l-25 -83 80 0 80 0 -6 25 c-3
13 -22 66 -40 117 l-34 93 -15 -35z"/>
<path d="M11600 3159 l0 -81 86 3 c76 4 88 7 105 28 27 34 24 77 -7 106 -24
22 -36 25 -105 25 l-79 0 0 -81z"/>
<path d="M11600 2920 l0 -90 81 0 c111 0 148 23 148 90 0 67 -39 90 -155 90
l-74 0 0 -90z"/>
<path d="M8216 2199 c-14 -11 -33 -34 -41 -49 -19 -36 -19 -130 -1 -174 42
-100 182 -102 227 -3 34 77 20 178 -32 221 -40 34 -113 36 -153 5z"/>
<path d="M9885 2198 c-56 -43 -72 -145 -36 -225 32 -70 112 -94 179 -53 41 25
62 73 62 140 0 102 -48 160 -130 160 -33 0 -55 -6 -75 -22z"/>
<path d="M5560 1230 l0 -160 56 0 c109 0 164 55 164 162 0 106 -54 158 -162
158 l-58 0 0 -160z"/>
<path d="M8015 1368 c-51 -40 -69 -125 -44 -209 19 -62 50 -84 119 -84 65 0
93 17 116 72 33 77 4 206 -52 231 -42 20 -108 15 -139 -10z"/>
<path d="M11225 1379 c-38 -19 -59 -61 -63 -125 -8 -114 31 -174 115 -181 63
-5 93 12 121 67 38 76 25 179 -29 224 -24 20 -41 26 -77 25 -26 0 -56 -5 -67
-10z"/>
<path d="M11819 1373 c-3 -75 -4 -280 -1 -290 6 -19 101 -16 142 5 47 23 70
72 70 148 0 105 -48 154 -152 154 -48 0 -58 -3 -59 -17z"/>
</g>
</svg>
